# xmcd
#
# Track frame offsets:
#	150
#	11937
#	21887
#	32535
#	43610
#	55212
#	65505
#	77947
#	88265
#	99127
#	109382
#	120625
#	131310
#	144207
#	156565
#	168057
#	179207
#	189582
#	200635
#	212102
#	222802
#	233100
#
# Disc length: 3248 seconds
#
# Revision: 1
# Processed by: cddbd v1.5.2PL0 Copyright (c) Steve Scherf et al.
# Submitted via: audiograbber 1.83.01
#
DISCID=3c0cae16
DTITLE=Robert Johnson - The Complete Recordings (2. Edition - 2004) - CD2
DYEAR=2004
DGENRE=Blues
TTITLE0=Hellhound On My Trail
TTITLE1=Little Queen Of Spades
TTITLE2=Malted Milk
TTITLE3=Drunken Hearted Man
TTITLE4=Me And The Devil Blues
TTITLE5=Stop Breakin' Down Blues
TTITLE6=Traveling Riverside Blues
TTITLE7=Honeymoon Blues
TTITLE8=Love In Vain
TTITLE9=Milkcow's Calf Blues
TTITLE10=Kindhearted Woman Blues (Alternate Take)
TTITLE11=Rambling On My Mind (Alternate Take)
TTITLE12=When You Got A Good Friend (Alternate Take)
TTITLE13=Come On My Mind (Alternate Take)
TTITLE14=Phonograph Blues (Alternate Take)
TTITLE15=Cross Road Blues (Alternate Take)
TTITLE16=Little Queen Of Spades (Alternate Take)
TTITLE17=Drunken Hearted Man (Alternate Take)
TTITLE18=Me And The Devil Blues (Alternate Take)
TTITLE19=Stop Breakin' Down Blues (Alternate Take)
TTITLE20=Love In Vain (Alternate Take)
TTITLE21=Milkow's Calf Blues (Alternate Take)
EXTD=by Columbia No1
EXTT0=
EXTT1=
EXTT2=
EXTT3=
EXTT4=
EXTT5=
EXTT6=
EXTT7=
EXTT8=
EXTT9=
EXTT10=
EXTT11=
EXTT12=
EXTT13=
EXTT14=
EXTT15=
EXTT16=
EXTT17=
EXTT18=
EXTT19=
EXTT20=
EXTT21=
PLAYORDER=
